<?xml version="1.0" encoding="UTF-8" standalone="no"?>
<!-- Created with Inkscape (http://www.inkscape.org/) -->

<svg
   width="67.419868mm"
   height="66.205093mm"
   viewBox="0 0 67.419868 66.205093"
   version="1.1"
   id="svg5"
   inkscape:export-filename="logo512.png"
   inkscape:export-xdpi="192.8927"
   inkscape:export-ydpi="192.8927"
   xmlns:inkscape="http://www.inkscape.org/namespaces/inkscape"
   xmlns:sodipodi="http://sodipodi.sourceforge.net/DTD/sodipodi-0.dtd"
   xmlns="http://www.w3.org/2000/svg"
   xmlns:svg="http://www.w3.org/2000/svg">
  <sodipodi:namedview
     id="namedview7"
     pagecolor="#ffffff"
     bordercolor="#666666"
     borderopacity="1.0"
     inkscape:showpageshadow="2"
     inkscape:pageopacity="0.0"
     inkscape:pagecheckerboard="0"
     inkscape:deskcolor="#d1d1d1"
     inkscape:document-units="mm"
     showgrid="false"
     inkscape:zoom="2.0913616"
     inkscape:cx="143.44722"
     inkscape:cy="285.69905"
     inkscape:window-width="1920"
     inkscape:window-height="991"
     inkscape:window-x="-9"
     inkscape:window-y="1071"
     inkscape:window-maximized="1"
     inkscape:current-layer="text236" />
  <defs
     id="defs2" />
  <g
     inkscape:label="Layer 1"
     inkscape:groupmode="layer"
     id="layer1"
     transform="translate(-7.168327,-38.453513)">
    <g
       aria-label="D"
       id="text236"
       style="font-size:25.3408px;font-family:'Paytone One';-inkscape-font-specification:'Paytone One';stroke-width:0.432096">
      <g
         id="g3633"
         inkscape:export-filename="logo192.png"
         inkscape:export-xdpi="96"
         inkscape:export-ydpi="96">
        <ellipse
           style="fill:#ececec;fill-opacity:1;stroke-width:0.426898;stroke-linecap:round;stroke-miterlimit:18.1;stroke-dashoffset:5.07364;stroke-opacity:0.670455;paint-order:markers fill stroke"
           id="path500"
           cx="40.878262"
           cy="71.556061"
           rx="33.709934"
           ry="33.102547" />
        <path
           d="m 40.893132,70.8321 -3.797352,9.538482 q -1.371618,3.445349 -3.768819,5.535389 -2.409893,2.121925 -5.399163,2.590609 -3.00197,0.500582 -6.094148,-0.783926 -3.248389,-1.349034 -5.131702,-3.841219 -1.896024,-2.46028 -2.203528,-5.710729 -0.288968,-3.205592 1.108046,-6.714723 l 3.797354,-9.538492 z m -19.537494,2.630061 q -0.952515,2.392603 0.02021,4.246396 0.991247,1.898673 3.365072,2.884488 2.248885,0.933932 4.056041,0.234532 1.825694,-0.654474 2.803607,-3.11088 L 32.464172,75.547421 22.219244,71.29284 Z"
           id="path396-9"
           style="font-size:25.3408px;font-family:'Paytone One';-inkscape-font-specification:'Paytone One';fill:#02182b;fill-opacity:1;stroke-width:0.58104" />
        <path
           d="m 40.687895,70.678437 9.425475,3.577652 q 3.404519,1.292255 5.50644,3.640891 2.133439,2.36059 2.662194,5.338304 0.560262,2.989665 -0.624648,6.110449 -1.244409,3.278429 -3.639762,5.218342 -2.363813,1.951899 -5.538244,2.333833 -3.130973,0.362367 -6.598535,-0.953823 L 32.45534,92.366432 Z m 3.031824,19.471848 q 2.364259,0.897403 4.156028,-0.117558 1.835274,-1.034496 2.74464,-3.430266 0.861506,-2.269683 0.134608,-4.060309 -0.683368,-1.810191 -3.110662,-2.731521 l -2.143579,-0.813645 -3.92465,10.33965 z"
           id="path396-9-0"
           style="font-size:25.3408px;font-family:'Paytone One';-inkscape-font-specification:'Paytone One';fill:#129490;fill-opacity:1;stroke-width:0.574936" />
        <path
           d="m 40.102596,70.878446 3.974448,-9.265145 q 1.435584,-3.346613 3.871309,-5.346962 2.449003,-2.031331 5.446468,-2.433225 3.010755,-0.432881 6.078434,0.883411 3.222657,1.382427 5.059168,3.85795 1.849823,2.444523 2.09668,5.63231 0.229172,3.143523 -1.232994,6.552087 l -3.974449,9.265146 z m 19.582977,-2.202708 q 0.996938,-2.324039 0.05893,-4.157267 -0.955678,-1.877527 -3.310698,-2.887746 -2.231069,-0.957064 -4.050936,-0.306805 -1.837558,0.605921 -2.861079,2.991932 l -0.903883,2.107116 10.163771,4.359931 z"
           id="path396-9-0-2"
           style="font-size:25.3408px;font-family:'Paytone One';-inkscape-font-specification:'Paytone One';fill:#741734;fill-opacity:1;stroke-width:0.574936" />
        <path
           d="M 40.679484,70.756522 31.18216,67.374214 q -3.430478,-1.221697 -5.58044,-3.526434 -2.181713,-2.316045 -2.77182,-5.2822 -0.62186,-2.977469 0.498035,-6.122075 1.176454,-3.30341 3.531244,-5.292376 2.323015,-2.00029 5.488872,-2.447667 3.122812,-0.426932 6.616806,0.817385 l 9.497316,3.38231 z M 37.246324,51.35142 q -2.382278,-0.848406 -4.152711,0.203316 -1.813531,1.072171 -2.673248,3.486207 -0.814477,2.28698 -0.05075,4.062219 0.720602,1.795693 3.166388,2.666726 l 2.159924,0.769215 3.710365,-10.418466 z"
           id="path396-9-7"
           style="font-size:25.3408px;font-family:'Paytone One';-inkscape-font-specification:'Paytone One';fill:#de9151;fill-opacity:1;stroke-width:0.574936" />
        <ellipse
           style="font-size:25.3408px;font-family:'Paytone One';-inkscape-font-specification:'Paytone One';fill:#808080;fill-opacity:1;stroke-width:0.0205874;stroke-linecap:round;stroke-miterlimit:18.1;stroke-dashoffset:5.07364;stroke-opacity:0.670455;paint-order:markers fill stroke"
           id="path500-6"
           cx="40.527641"
           cy="71.066643"
           rx="1.6256837"
           ry="1.596392" />
      </g>
    </g>
  </g>
</svg>
